<svg width="24" height="24" viewBox="0 0 24 24" fill="none" xmlns="http://www.w3.org/2000/svg">
<path d="M3 4.02701C3 4.38818 3.24729 4.96339 3.70855 5.43517C4.16981 5.90696 4.80027 6.29602 5.46146 6.30245H15.9965C17.1055 6.31187 18.192 6.59763 19.1606 7.13387C20.1291 7.67003 20.9783 8.317 21.5729 9.25065V6.89039C21.5729 6.68023 21.4494 5.1651 21.1787 4.48623C20.9079 3.80727 20.5057 3.18898 19.9951 2.66672C19.4845 2.14447 18.8754 1.72841 18.2027 1.44236C17.5301 1.15639 16.8072 1.00611 16.0752 1H3V4.02701Z" fill="#3F423E"/>
<path d="M10.8254 23.0098C10.5031 22.9074 10.2036 22.7401 9.9446 22.518L5.70703 18.944C6.67894 17.9481 7.97943 17.3593 9.35587 17.292C10.7323 17.2247 12.0865 17.6836 13.1554 18.5797L15.1025 20.2123L13.5461 22.1617C13.3356 22.4302 13.0748 22.653 12.7787 22.8166C12.4826 22.9803 12.1574 23.0816 11.822 23.1148C11.4866 23.148 11.1478 23.1123 10.8254 23.0098Z" fill="#3F423E"/>
<path fill-rule="evenodd" clip-rule="evenodd" d="M16.0809 10.5504C16.4215 11.3677 16.5912 12.5973 16.591 13.1294V18.228C16.591 19.0973 16.4215 19.9898 16.0809 20.807C15.7403 21.6242 15.2416 22.3656 14.6119 22.9883C14.2842 23.3135 13.925 23.6047 13.5371 23.8575L16.0222 23.8274C17.5149 23.8283 18.9481 23.237 20.0043 22.1832C21.0619 21.1295 21.6686 19.5973 21.6686 18.2069V12.5897C21.6643 11.0973 21.0619 10.228 20.0043 9.17416C18.9467 8.12043 17.5149 7.52911 16.0222 7.53005L13.5371 7.5C13.9235 7.75272 14.2827 8.04386 14.6119 8.36913C15.2401 8.99179 15.7403 9.73323 16.0809 10.5504Z" fill="#3F423E"/>
</svg>
