<svg preserveAspectRatio="none" width="100%" height="100%" overflow="visible" style="display: block;" viewBox="0 0 25.333 25.333" fill="none" xmlns="http://www.w3.org/2000/svg">
<g id="Artwork">
<path id="Union" d="M12.667 0C19.6624 0.000176334 25.333 5.67149 25.333 12.667C25.3328 19.6623 19.6623 25.3328 12.667 25.333C5.67149 25.333 0.000176329 19.6624 0 12.667C0 5.67139 5.67139 0 12.667 0ZM12.667 1.33301C6.40777 1.33301 1.33301 6.40777 1.33301 12.667C1.33318 18.9261 6.40787 24 12.667 24C18.926 23.9998 23.9998 18.926 24 12.667C24 6.40787 18.9261 1.33318 12.667 1.33301ZM12.6934 6C13.0615 6 13.3604 6.2988 13.3604 6.66699V7.51465C14.1707 7.63505 15.0284 7.95286 15.5332 8.56152C15.7681 8.84492 15.7287 9.26499 15.4453 9.5C15.1973 9.70562 14.8443 9.70198 14.6025 9.50781L14.4014 9.30664C14.1854 9.12245 13.8195 8.96121 13.3604 8.86914V12.1621C13.6127 12.2318 13.8666 12.3064 14.1035 12.3926C14.4979 12.5361 14.9214 12.7338 15.2383 13.041C16.4937 14.2541 16.1696 16.2451 14.9766 17.2334C14.6289 17.5214 14.1834 17.6905 13.7432 17.7822C13.6184 17.8082 13.4903 17.8275 13.3604 17.8428V18.667C13.3602 19.035 13.0614 19.333 12.6934 19.333C12.3253 19.333 12.0265 19.035 12.0264 18.667V17.8252C11.2006 17.711 10.3157 17.3945 9.7998 16.7725C9.56499 16.4891 9.60443 16.069 9.8877 15.834C10.1711 15.5989 10.5911 15.6385 10.8262 15.9219C11.0197 16.1551 11.4546 16.3685 12.0264 16.4746V13.1846C11.7582 13.1113 11.4866 13.034 11.2344 12.9424C10.8385 12.7985 10.4142 12.6007 10.0957 12.2939L10.0947 12.293C8.83903 11.08 9.16338 9.08893 10.3564 8.10059C10.7041 7.81262 11.1497 7.64348 11.5898 7.55176C11.7317 7.5222 11.8781 7.5011 12.0264 7.48535V6.66699C12.0264 6.2988 12.3252 6 12.6934 6ZM13.3604 16.4951C13.3978 16.4888 13.4356 16.4851 13.4717 16.4775C13.7861 16.412 14.0029 16.3089 14.126 16.207C14.816 15.6354 14.8987 14.567 14.3115 14L14.3105 13.999C14.1984 13.8901 13.9884 13.7705 13.6475 13.6465C13.5557 13.6131 13.46 13.5808 13.3604 13.5498V16.4951ZM11.8623 8.85645C11.5476 8.92201 11.3302 9.02502 11.207 9.12695C10.5171 9.69843 10.4347 10.7669 11.0215 11.334C11.1364 11.4445 11.3484 11.5645 11.6895 11.6885C11.7962 11.7273 11.9091 11.7631 12.0264 11.7988V8.8291C11.9704 8.83749 11.9154 8.84539 11.8623 8.85645Z" fill="var(--fill-0, #25201F)"/>
</g>
</svg>
