<svg width="93" height="20" viewBox="0 0 93 20" fill="none" xmlns="http://www.w3.org/2000/svg">
<g clip-path="url(#clip0_10611_44693)">
<path d="M3.91555 13.3L7.84323 11.0933L7.90927 10.9016L7.84323 10.795H7.65183L6.99542 10.7545L4.75122 10.6938L2.80491 10.6128L0.919244 10.5115L0.444796 10.4103L0 9.82319L0.045828 9.5303L0.444796 9.26171L1.01629 9.31165L2.27924 9.39803L4.17434 9.52895L5.54916 9.60994L7.58579 9.82184H7.90927L7.9551 9.69092L7.84458 9.60994L7.75831 9.52895L5.79717 8.19814L3.67428 6.79174L2.56229 5.98192L1.96114 5.5716L1.65787 5.18693L1.52713 4.34742L2.07302 3.74545L2.80626 3.79538L2.99361 3.84532L3.73628 4.4176L5.32272 5.64719L7.39439 7.17506L7.69766 7.42745L7.81897 7.34107L7.83379 7.28034L7.69766 7.05223L6.57084 5.01282L5.36855 2.93832L4.83344 2.07855L4.69192 1.56296C4.64205 1.35106 4.60566 1.1729 4.60566 0.955595L5.22702 0.110677L5.57073 0L6.39966 0.110677L6.74876 0.414362L7.26365 1.59401L8.09797 3.45121L9.39192 5.97652L9.77067 6.7256L9.97285 7.41936L10.0483 7.63126H10.1791V7.50979L10.2856 6.08719L10.4823 4.34067L10.6737 2.0934L10.7398 1.46039L11.0525 0.701849L11.6739 0.291538L12.1591 0.523688L12.5581 1.09596L12.5028 1.46579L12.2656 3.00985L11.8006 5.42853L11.4973 7.04819H11.6739L11.876 6.84573L12.6942 5.75786L14.069 4.03698L14.6756 3.35403L15.3832 2.59954L15.8374 2.24052H16.696L17.3282 3.18127L17.0451 4.15306L16.1609 5.27602L15.4277 6.22756L14.3763 7.64476L13.7199 8.77851L13.7806 8.86894L13.9369 8.8541L16.3119 8.34796L17.595 8.11581L19.1262 7.85261L19.819 8.17654L19.8945 8.50587L19.6222 9.17938L17.9846 9.58429L16.0639 9.96896L13.2037 10.6465L13.1686 10.6722L13.2091 10.7221L14.4976 10.8436L15.0489 10.8733H16.3981L18.9105 11.0609L19.567 11.4955L19.9605 12.0273L19.8945 12.4322L18.8836 12.9478L17.5196 12.6238L14.3359 11.8653L13.2441 11.5927H13.0932V11.6831L14.003 12.5739L15.6703 14.0815L17.7581 16.0251L17.8646 16.5056L17.5964 16.8849L17.3133 16.8444L15.4789 15.4623L14.7713 14.8401L13.1686 13.489H13.0622V13.6307L13.4315 14.172L15.3818 17.1076L15.4829 18.0078L15.3414 18.3007L14.836 18.4775L14.2806 18.3763L13.139 16.7715L11.961 14.9642L11.0107 13.3446L10.8948 13.4107L10.3341 19.4588L10.0712 19.7679L9.46471 20L8.95926 19.6153L8.69104 18.9931L8.95926 17.7635L9.28275 16.1587L9.54558 14.8832L9.7828 13.2987L9.92433 12.7723L9.9149 12.7372L9.79898 12.7521L8.60612 14.392L6.79189 16.8471L5.35642 18.3857L5.01271 18.5221L4.41695 18.213L4.47222 17.661L4.80514 17.1697L6.79189 14.639L7.99015 13.0706L8.76382 12.1649L8.75843 12.034H8.7126L3.43571 15.465L2.49625 15.5865L2.09189 15.2072L2.14176 14.585L2.33315 14.3825L3.91959 13.2892L3.9142 13.2946L3.91555 13.3Z" fill="#D97757"/>
<path d="M32.6319 16.9793C30.0952 16.9793 28.3605 15.5621 27.5424 13.381C27.1151 12.2445 26.9035 11.0379 26.921 9.82317C26.921 6.1641 28.5587 3.6226 32.1777 3.6226C34.6092 3.6226 36.1094 4.68482 36.9639 7.22093H38.0045L37.863 3.72383C36.4073 2.78308 34.5877 2.30663 32.3745 2.30663C29.2555 2.30663 26.6029 3.70359 25.127 6.22349C24.3641 7.55431 23.9773 9.06733 24.0056 10.6019C24.0056 13.4012 25.3251 15.8807 27.8012 17.2574C29.1571 17.9822 30.6775 18.3425 32.2141 18.2993C34.6294 18.2993 36.5461 17.8391 38.2444 17.0347L38.6838 13.1785H37.6231C36.9869 14.9399 36.228 15.9981 34.9691 16.5596C34.3531 16.8376 33.5741 16.9793 32.6346 16.9793H32.6319ZM43.5739 3.6226L43.675 1.90172H42.9579L39.7635 2.86271V3.3837L41.1787 4.04101V16.0764C41.1787 16.8957 40.7595 17.0779 39.6624 17.2155V18.0955H45.0956V17.2155C43.9944 17.0792 43.5793 16.897 43.5793 16.0764V3.62665L43.5739 3.62125V3.6226ZM65.1815 18.3007H65.6007L69.275 17.6029V16.7026L68.7601 16.6621C67.9015 16.5812 67.6791 16.4044 67.6791 15.7012V9.28328L67.7802 7.22363H67.1993L63.7272 7.72437V8.60438L64.0655 8.66512C65.0049 8.80144 65.2839 9.06463 65.2839 9.72329V15.442C64.3849 16.1398 63.525 16.5812 62.5046 16.5812C61.3724 16.5812 60.6702 16.0048 60.6702 14.6578V9.28733L60.7713 7.22767H60.1755L56.698 7.72842V8.60843L57.0566 8.66917C57.996 8.80549 58.275 9.06868 58.275 9.72734V15.0061C58.275 17.2425 59.538 18.3061 61.5504 18.3061C63.0869 18.3061 64.3458 17.4868 65.2907 16.3477L65.1896 18.3061L65.1842 18.3007H65.1815ZM55.0833 11.1796C55.0833 8.31959 53.567 7.22228 50.8281 7.22228C48.4127 7.22228 46.6578 8.22376 46.6578 9.88391C46.6578 10.3793 46.8344 10.7599 47.1929 11.0231L49.0327 10.7801C48.9519 10.224 48.9114 9.8839 48.9114 9.74218C48.9114 8.80144 49.4115 8.32499 50.4278 8.32499C51.9293 8.32499 52.6868 9.38316 52.6868 11.0838V11.6399L48.8966 12.779C47.6336 13.1232 46.9152 13.4215 46.4354 14.1206C46.1807 14.5485 46.058 15.0411 46.0823 15.5378C46.0823 17.1575 47.1942 18.3007 49.0947 18.3007C50.4696 18.3007 51.688 17.6785 52.7488 16.4988C53.1275 17.6785 53.7085 18.3007 54.745 18.3007C55.5834 18.3007 56.3422 17.9619 57.0188 17.2992L56.8167 16.6014C56.5242 16.6824 56.2411 16.7229 55.9419 16.7229C55.361 16.7229 55.0833 16.2626 55.0833 15.361V11.181V11.1796ZM50.231 16.681C49.1945 16.681 48.5529 16.0791 48.5529 15.0209C48.5529 14.3029 48.8912 13.8817 49.6137 13.6388L52.6868 12.6616V15.6175C51.7069 16.3612 51.13 16.6797 50.231 16.6797V16.681ZM82.2239 17.6015V16.7013L81.7036 16.6608C80.845 16.5798 80.6267 16.403 80.6267 15.6998V3.62395L80.7278 1.90307H80.0053L76.8109 2.86406V3.38505L78.2261 4.04236V7.99971C77.4296 7.45308 76.4766 7.17909 75.5115 7.22093C72.3373 7.22093 69.8613 9.63961 69.8613 13.2595C69.8613 16.241 71.6405 18.3007 74.5721 18.3007C76.0884 18.3007 77.408 17.5624 78.2261 16.4179L78.1251 18.3007H78.5496L82.2239 17.6029V17.6015ZM75.5722 8.42082C77.0885 8.42082 78.2261 9.30083 78.2261 10.9205V15.4758C77.5279 16.1722 76.5777 16.5555 75.5924 16.538C73.4197 16.538 72.3171 14.8171 72.3171 12.5199C72.3171 9.93924 73.576 8.42082 75.5722 8.42082ZM89.993 10.6991C89.71 9.36292 88.8918 8.60438 87.7542 8.60438C86.0559 8.60438 84.8779 9.88526 84.8779 11.7222C84.8779 14.4405 86.3133 16.2019 88.633 16.2019C90.1804 16.1857 91.6037 15.3475 92.3679 14.0005L93.0446 14.1827C92.7413 16.5407 90.609 18.302 87.9901 18.302C84.9169 18.302 82.7994 16.0251 82.7994 12.7858C82.7994 9.54648 85.0989 7.22363 88.172 7.22363C90.4661 7.22363 92.0835 8.60573 92.6052 11.0042L84.5989 13.4633V12.3809L89.9917 10.7059V10.7005L89.993 10.6991Z" fill="#0F0F0D"/>
</g>
<defs>
<clipPath id="clip0_10611_44693">
<rect width="93" height="20" fill="white"/>
</clipPath>
</defs>
</svg>
