<svg width="101" height="20" viewBox="0 0 101 20" fill="none" xmlns="http://www.w3.org/2000/svg">
<path d="M8.77381 10L17.4646 15.0049C17.4112 15.0971 17.3337 15.1759 17.2379 15.231L9.11481 19.9089C8.9039 20.0304 8.64373 20.0304 8.43282 19.9089L0.309774 15.231C0.213904 15.1759 0.136455 15.0971 0.0830688 15.0049L8.77381 10Z" fill="#72716D"/>
<path d="M8.77383 0V10L0.0830877 15.0049C0.029701 14.9126 0 14.8061 0 14.6959V5.30413C0 5.08325 0.118052 4.87962 0.309793 4.76899L8.43246 0.0911273C8.5381 0.0303758 8.65578 0 8.77345 0H8.77383Z" fill="#55544F"/>
<path d="M17.4642 4.99513C17.4108 4.90287 17.3333 4.82412 17.2375 4.76899L9.11443 0.0911273C9.00916 0.0303758 8.89148 0 8.7738 0V10L17.4645 15.0049C17.5179 14.9126 17.5476 14.8061 17.5476 14.6959V5.30413C17.5476 5.19351 17.5183 5.08775 17.4645 4.99513H17.4642Z" fill="#43413C"/>
<path d="M16.8562 5.34538C16.9055 5.43013 16.9123 5.53889 16.8562 5.63564L8.96743 19.2642C8.91442 19.3565 8.77344 19.3186 8.77344 19.2125V10.2318C8.77344 10.1601 8.75426 10.0911 8.7193 10.0307L16.8559 5.34501H16.8562V5.34538Z" fill="#D6D5D2"/>
<path d="M16.8563 5.34538L8.71972 10.0311C8.68513 9.97113 8.63475 9.92013 8.57234 9.88412L0.775261 5.39376C0.682775 5.34089 0.720747 5.20026 0.827144 5.20026H16.6044C16.7164 5.20026 16.8074 5.26063 16.8563 5.34538Z" fill="white"/>
<path d="M31.8201 3.93362H35.9093V6.18053H31.9586C29.8273 6.18053 28.1639 7.40771 28.1639 10.0002C28.1639 12.5927 29.8273 13.8199 31.9586 13.8199H35.9093V16.0668H31.6468C28.0773 16.0668 25.5477 13.9756 25.5477 10.0007C25.5477 6.02572 28.2505 3.93452 31.8201 3.93452V3.93362Z" fill="#26251E"/>
<path d="M37.9887 3.93362H40.5183V11.348C40.5183 13.1971 41.3674 14.0616 43.3602 14.0616C45.3529 14.0616 46.202 13.1976 46.202 11.348V3.93362H48.7316V11.8664C48.7316 14.5624 47.0163 16.2738 43.3602 16.2738C39.704 16.2738 37.9887 14.5453 37.9887 11.8493V3.93362Z" fill="#26251E"/>
<path d="M61.9518 7.37306C61.9518 8.72129 61.1722 9.75812 60.1323 10.2077V10.2423C61.2241 10.398 61.7786 11.1757 61.7957 12.23L61.8476 16.0668H59.318L59.2661 12.6449C59.249 11.8844 58.7982 11.4178 57.8973 11.4178H53.6867V16.0668H51.157V3.93362H58.14C60.4274 3.93362 61.9518 5.0915 61.9518 7.37306ZM59.4046 7.71867C59.4046 6.68184 58.8501 6.11123 57.8107 6.11123H53.6867V9.32566H57.845C58.7978 9.32566 59.4046 8.75549 59.4046 7.71822V7.71867Z" fill="#26251E"/>
<path d="M71.5158 12.5234C71.5158 11.6594 70.9614 11.2963 70.1299 11.2274L67.3228 10.9682C64.8969 10.7436 63.6319 9.79277 63.6319 7.49411C63.6319 5.19545 65.1915 3.93362 67.4266 3.93362H73.6295V6.11123H67.5998C66.7336 6.11123 66.1791 6.56079 66.1791 7.42481C66.1791 8.28883 66.7507 8.70374 67.6174 8.77304L70.4764 9.01515C72.6424 9.20505 74.063 10.1906 74.063 12.5063C74.063 14.8221 72.5557 16.0668 70.4245 16.0668H63.9441V13.8892H70.1818C70.9961 13.8892 71.5158 13.3362 71.5158 12.5239V12.5234Z" fill="#26251E"/>
<path d="M81.462 3.72617C85.2738 3.72617 87.6825 6.16298 87.6825 9.98267C87.6825 13.8024 85.17 16.2738 81.3582 16.2738C77.5464 16.2738 75.1377 13.8024 75.1377 9.98267C75.1377 6.16298 77.6502 3.72617 81.462 3.72617ZM85.0658 10.0002C85.0658 7.44236 83.5756 5.93887 81.4096 5.93887C79.2437 5.93887 77.7535 7.44236 77.7535 10.0002C77.7535 12.5581 79.2437 14.0616 81.4096 14.0616C83.5756 14.0616 85.0658 12.5581 85.0658 10.0002Z" fill="#26251E"/>
<path d="M100.227 7.37306C100.227 8.72129 99.4473 9.75812 98.4073 10.2077V10.2423C99.4991 10.398 100.054 11.1757 100.071 12.23L100.123 16.0668H97.593L97.5411 12.6449C97.524 11.8844 97.0733 11.4178 96.1723 11.4178H91.9617V16.0668H89.4321V3.93362H96.415C98.7024 3.93362 100.227 5.0915 100.227 7.37306ZM97.6796 7.71867C97.6796 6.68184 97.1252 6.11123 96.0857 6.11123H91.9617V9.32566H96.12C97.0728 9.32566 97.6796 8.75549 97.6796 7.71822V7.71867Z" fill="#26251E"/>
</svg>
