<svg preserveAspectRatio="none" width="100%" height="100%" overflow="visible" style="display: block;" viewBox="0 0 15.0544 9" fill="none" xmlns="http://www.w3.org/2000/svg">
<g id="Dropdown Arrow">
<path id="Vector" d="M0.33137 8.65584C0.54361 8.8762 0.83143 9 1.13154 9C1.43165 9 1.71947 8.8762 1.93171 8.65584L7.53401 2.83731L13.1363 8.65584C13.3498 8.86996 13.6357 8.98844 13.9324 8.98576C14.2292 8.98308 14.513 8.85946 14.7229 8.64152C14.9327 8.42358 15.0517 8.12876 15.0543 7.82056C15.0569 7.51236 14.9428 7.21543 14.7367 6.99374L8.33418 0.344159C8.12194 0.123794 7.83412 0 7.53401 0C7.23391 0 6.94609 0.123794 6.73385 0.344159L0.33137 6.99374C0.119194 7.21417 0 7.5131 0 7.82479C0 8.13648 0.119194 8.43541 0.33137 8.65584V8.65584Z" fill="var(--fill-0, #004822)"/>
</g>
</svg>
