<svg width="16" height="24" viewBox="0 0 16 24" fill="none" xmlns="http://www.w3.org/2000/svg">
<g clip-path="url(#clip0_10611_44684)">
<path d="M4.0008 24C6.20836 24 8 22.208 8 20V16H4.0008C1.79324 16 0.00160217 17.792 0.00160217 20C0.00160217 22.208 1.79324 24 4.0008 24Z" fill="#0ACF83"/>
<path d="M0.00160217 12C0.00160217 9.792 1.79324 8 4.0008 8H8V16H4.0008C1.79324 16 0.00160217 14.208 0.00160217 12Z" fill="#A259FF"/>
<path d="M0.00140381 4C0.00140381 1.792 1.79305 0 4.0006 0H7.9998V8H4.0006C1.79305 8 0.00140381 6.208 0.00140381 4Z" fill="#F24E1E"/>
<path d="M8 0H11.9992C14.2068 0 15.9984 1.792 15.9984 4C15.9984 6.208 14.2068 8 11.9992 8H8V0Z" fill="#FF7262"/>
<path d="M15.9984 12C15.9984 14.208 14.2068 16 11.9992 16C9.79164 16 8 14.208 8 12C8 9.792 9.79164 8 11.9992 8C14.2068 8 15.9984 9.792 15.9984 12Z" fill="#1ABCFE"/>
</g>
<defs>
<clipPath id="clip0_10611_44684">
<rect width="16" height="24" fill="white"/>
</clipPath>
</defs>
</svg>
