<svg width="24" height="24" viewBox="0 0 24 24" fill="none" xmlns="http://www.w3.org/2000/svg">
<path d="M8.08513 0.4591C9.04855 0.0627266 10.0974 -0.080481 11.1318 0.0431097C12.4652 0.19644 13.6532 0.763094 14.6958 1.74307C14.7092 1.7564 14.7278 1.76574 14.7452 1.77107C14.764 1.7757 14.7837 1.7757 14.8025 1.77107C16.158 1.42102 17.5929 1.55057 18.8639 2.13773L18.9265 2.16706L19.0812 2.24306C20.4116 2.91732 21.4492 4.05504 21.9985 5.44165C22.2772 6.12164 22.4159 6.82962 22.4185 7.56827C22.4386 8.11761 22.3784 8.66694 22.2399 9.1989C22.233 9.22576 22.2331 9.25391 22.2401 9.28072C22.2471 9.30753 22.2608 9.33214 22.2799 9.35223C23.0719 10.1615 23.5972 11.1255 23.8572 12.2455C24.2425 14.1455 23.8479 15.8588 22.6745 17.3841L22.4932 17.6054C21.7161 18.4949 20.6961 19.1381 19.5585 19.456C19.5338 19.4632 19.5112 19.4762 19.4924 19.4938C19.4737 19.5114 19.4593 19.5332 19.4505 19.5573C19.1959 20.292 18.9399 20.9213 18.4638 21.5493C17.2638 23.1319 15.5012 24.0106 13.5158 23.9999C11.9331 23.9919 10.5305 23.4133 9.30647 22.2639C9.28805 22.2467 9.26538 22.2347 9.24079 22.229C9.21619 22.2234 9.19055 22.2244 9.16647 22.2319C8.64913 22.3986 8.12646 22.4226 7.56113 22.4159C6.66068 22.4087 5.77374 22.1962 4.96778 21.7946C4.12355 21.3763 3.38852 20.7668 2.8211 20.0147C2.61843 19.7453 2.4171 19.492 2.2691 19.192C2.06705 18.7804 1.90196 18.3516 1.77576 17.9107C1.50936 16.9076 1.50294 15.8531 1.7571 14.8468C1.76545 14.8228 1.76819 14.7973 1.7651 14.7721C1.76053 14.7474 1.74787 14.7249 1.7291 14.7081C1.11318 14.0847 0.642434 13.3331 0.350422 12.5068C0.156222 11.9979 0.0432862 11.4616 0.0157542 10.9175C-0.0326849 10.201 0.0307418 9.48127 0.203755 8.78425C0.653091 7.30161 1.5131 6.13764 2.7811 5.29366C3.06377 5.10566 3.33177 4.959 3.58244 4.85367C3.86911 4.735 4.15578 4.63501 4.44378 4.55101C4.46436 4.54462 4.48304 4.53325 4.49816 4.5179C4.51329 4.50254 4.52437 4.48369 4.53044 4.46301C4.74913 3.67775 5.12519 2.94515 5.63578 2.30973C6.27943 1.49242 7.12307 0.855004 8.08513 0.4591ZM12.7278 14.5455C12.5111 14.5576 12.3073 14.6522 12.1582 14.8099C12.0091 14.9676 11.9261 15.1764 11.9261 15.3934C11.9261 15.6104 12.0091 15.8192 12.1582 15.9769C12.3073 16.1346 12.5111 16.2293 12.7278 16.2414H17.5758C17.6912 16.2479 17.8067 16.2307 17.9152 16.1911C18.0237 16.1514 18.123 16.09 18.2069 16.0106C18.2909 15.9312 18.3578 15.8355 18.4035 15.7294C18.4492 15.6233 18.4728 15.509 18.4728 15.3934C18.4728 15.2779 18.4492 15.1636 18.4035 15.0575C18.3578 14.9513 18.2909 14.8557 18.2069 14.7763C18.123 14.6969 18.0237 14.6355 17.9152 14.5958C17.8067 14.5561 17.6912 14.539 17.5758 14.5455H12.7278ZM7.28246 8.30692C7.16707 8.119 6.98311 7.98331 6.76949 7.92857C6.55586 7.87383 6.32932 7.90433 6.13777 8.01361C5.94622 8.12289 5.80469 8.30238 5.74311 8.51413C5.68153 8.72588 5.70472 8.95328 5.80778 9.14824L7.50379 12.1135L5.81578 14.9614C5.75896 15.0573 5.72158 15.1634 5.70578 15.2737C5.68997 15.384 5.69604 15.4964 5.72365 15.6043C5.75126 15.7123 5.79987 15.8138 5.86669 15.9029C5.93352 15.9921 6.01725 16.0673 6.11312 16.1241C6.20898 16.1809 6.3151 16.2183 6.42541 16.2341C6.53573 16.2499 6.64807 16.2438 6.75603 16.2162C6.864 16.1886 6.96547 16.14 7.05465 16.0732C7.14383 16.0064 7.21897 15.9226 7.27579 15.8268L9.21447 12.5535C9.2909 12.4245 9.33179 12.2776 9.33296 12.1277C9.33413 11.9778 9.29555 11.8303 9.22114 11.7002L7.28246 8.30692Z" fill="url(#paint0_linear_10611_44691)"/>
<defs>
<linearGradient id="paint0_linear_10611_44691" x1="11.9998" y1="0.00044398" x2="11.9998" y2="23.9999" gradientUnits="userSpaceOnUse">
<stop stop-color="#B1A7FF"/>
<stop offset="0.5" stop-color="#7A9DFF"/>
<stop offset="1" stop-color="#3941FF"/>
</linearGradient>
</defs>
</svg>
